<svg width="92" height="113" viewBox="0 0 92 113" fill="none" xmlns="http://www.w3.org/2000/svg">
<path d="M23.4222 111.482V105.615C23.4222 105.077 23.0011 104.637 22.4858 104.637H15.0004C14.4851 104.637 14.064 105.077 14.064 105.615V111.482C14.064 112.021 13.643 112.461 13.1277 112.461H9.38252C8.8673 112.461 8.44621 112.021 8.44621 111.482V91.9196C8.44621 91.381 8.8673 90.9409 9.38252 90.9409H13.1277C13.643 90.9409 14.064 91.381 14.064 91.9196V97.7862C14.064 98.3247 14.4851 98.7649 15.0004 98.7649H22.4858C23.0011 98.7649 23.4222 98.3247 23.4222 97.7862V91.9196C23.4222 91.381 23.8432 90.9409 24.3585 90.9409H28.1037C28.6189 90.9409 29.04 91.381 29.04 91.9196V111.482C29.04 112.021 28.6189 112.461 28.1037 112.461H24.3585C23.8432 112.461 23.4222 112.021 23.4222 111.482Z" fill="white"/>
<path d="M39.4483 112.461C37.3825 112.461 35.7081 110.71 35.7081 108.551V91.9247C35.7081 91.3862 36.1292 90.9461 36.6444 90.9461H40.3896C40.9048 90.9461 41.3259 91.3862 41.3259 91.9247V105.615C41.3259 106.154 41.747 106.594 42.2622 106.594H49.7427C50.258 106.594 50.6791 106.154 50.6791 105.615V91.9247C50.6791 91.3862 51.1001 90.9461 51.6154 90.9461H55.3606C55.8758 90.9461 56.2969 91.3862 56.2969 91.9247V108.551C56.2969 110.71 54.6224 112.461 52.5566 112.461H39.4483Z" fill="white"/>
<path d="M83.5538 99.4898C83.5538 100.101 83.3754 100.676 83.0683 101.142C82.8503 101.478 82.8503 101.918 83.0683 102.255C83.3705 102.721 83.5538 103.29 83.5538 103.886V108.541C83.5538 110.7 81.8793 112.45 79.8135 112.45H63.9062C63.391 112.45 62.9699 112.01 62.9699 111.472V91.9092C62.9699 91.3707 63.391 90.9306 63.9062 90.9306H79.8135C81.8793 90.9306 83.5538 92.6807 83.5538 94.8399V99.4898ZM77.0046 96.8128H69.5191C69.0039 96.8128 68.5828 97.2529 68.5828 97.7914C68.5828 98.3299 69.0039 98.77 69.5191 98.77H77.0046C77.5198 98.77 77.9409 98.3299 77.9409 97.7914C77.9409 97.2477 77.5198 96.8128 77.0046 96.8128ZM69.5191 106.589H77.0046C77.5198 106.589 77.9409 106.149 77.9409 105.61C77.9409 105.072 77.5198 104.632 77.0046 104.632H69.5191C69.0039 104.632 68.5828 105.072 68.5828 105.61C68.5828 106.154 68.9989 106.589 69.5191 106.589Z" fill="white"/>
<path d="M88.8447 0.460663H3.15534C1.69391 0.460663 0.5 1.70856 0.5 3.23607V81.0199C0.5 82.5474 1.69391 83.7953 3.15534 83.7953H88.8447C90.3061 83.7953 91.5 82.5474 91.5 81.0199V3.23607C91.5 1.70856 90.3061 0.460663 88.8447 0.460663ZM83.638 51.7332H55.4151V57.7914H83.638V63.5286H55.4151V69.5869H83.638V75.3241H49.926V45.9908H83.638V51.7332ZM49.926 11.5416C49.926 9.9571 51.1447 8.67296 52.6458 8.67296H80.8935C82.4094 8.67296 83.638 9.96228 83.638 11.5416V38.0115H78.149V30.6328H55.42V38.0063H49.926V11.5416ZM36.7534 75.3293V56.4037L27.4151 75.3293H23.3577L14.0244 56.4089V75.3344H8.53539V45.9908H15.0598L25.3938 66.9099L35.7279 45.9908H42.2523V75.3293H36.7534ZM8.53539 11.5416C8.53539 9.9571 9.76893 8.67296 11.2799 8.67296H39.5028C41.0188 8.67296 42.2473 9.96228 42.2473 11.5416V15.539H36.7534V14.4102H14.0244V32.2691H36.7534V27.2464H29.6989V21.504H42.2473V35.1377C42.2473 36.7221 41.0138 38.0063 39.5028 38.0063H11.2799C9.76398 38.0063 8.53539 36.717 8.53539 35.1377V11.5416Z" fill="white"/>
<path d="M78.144 14.4102H55.4151V24.8956H78.144V14.4102Z" fill="white"/>
</svg>
